# xmcd
#
# Track frame offsets:
#	150
#	16057
#	38170
#	50047
#	72670
#	81227
#	103067
#	118600
#	130287
#	142525
#	156122
#	168055
#
# Disc length: 2408 seconds
#
# Revision: 0
# Processed by: cddbd v1.5.1PL0 Copyright (c) Steve Scherf et al.
# Submitted via: dBpowerAMP V4.0
#
DISCID=9909660c
DTITLE=Blue Room - Into The Night
DYEAR=1900
DGENRE=Blues
TTITLE0=On a Night Like This
TTITLE1=Two Young Heroes
TTITLE2=Another Angry Young Man
TTITLE3=The Power of the Gun
TTITLE4=Jack Kerouac
TTITLE5=Float Like a Butterfly, Sting Like a Bee
TTITLE6=Into the Night, Into the City
TTITLE7=Crazy City
TTITLE8=Devil
TTITLE9=Moanin' and Groanin'
TTITLE10=Get Out on the Highway and Go
TTITLE11=Don't Tell Me You Love Me
EXTD=
EXTT0=
EXTT1=
EXTT2=
EXTT3=
EXTT4=
EXTT5=
EXTT6=
EXTT7=
EXTT8=
EXTT9=
EXTT10=
EXTT11=
PLAYORDER=
